<svg width="93" height="130" viewBox="0 0 93 130" fill="none" xmlns="http://www.w3.org/2000/svg">
<path fill-rule="evenodd" clip-rule="evenodd" d="M18.5953 102.626C19.6022 102.626 20.5678 102.226 21.2798 101.514L50.3733 72.4203C52.0051 72.7861 53.7483 73.0281 55.5924 73.0281C55.9102 73.0281 56.2266 73.0224 56.5416 73.0111V71.7806C54.6789 70.776 52.8825 69.5866 51.3094 68.0134C50.2119 66.9159 49.2533 65.732 48.4337 64.4835C47.7304 64.6342 47.0715 64.9841 46.5444 65.5113L17.0228 95.0329H7.59288L7.59288 85.603L10.3019 82.894H23.5282C25.625 82.894 27.3247 81.1943 27.3247 79.0976L27.3247 65.8712L37.1145 56.0814C38.1015 55.0944 38.4673 53.6456 38.0671 52.3084C37.5249 50.4966 37.1906 48.7692 37.1906 47.0334C37.1906 36.8717 45.4308 28.6315 55.5924 28.6315C58.4125 28.6315 61.0847 29.2662 63.4737 30.4005C68.1152 29.6565 72.9476 30.3891 77.2132 32.5982C72.5502 25.6284 64.6067 21.0387 55.5924 21.0387C41.2373 21.0387 29.5977 32.6783 29.5977 47.0334C29.5977 48.8775 29.8397 50.6207 30.2055 52.2525L20.8438 61.6142C20.1318 62.3262 19.7318 63.2918 19.7318 64.2987L19.7318 75.3011L8.72939 75.3011C7.72252 75.3011 6.75687 75.7011 6.04491 76.4131L1.11196 81.346C0.399981 82.058 0 83.0236 0 84.0305V98.8294C0 100.926 1.69973 102.626 3.79644 102.626H18.5953Z" fill="#34B53A"/>
<path fill-rule="evenodd" clip-rule="evenodd" d="M81.2668 115.103C81.2668 116.11 80.8669 117.076 80.1549 117.788L69.6905 128.252C68.2079 129.735 65.8041 129.735 64.3215 128.252L53.8572 117.788C53.1452 117.076 52.7452 116.11 52.7452 115.103V108.127C52.7452 107.12 53.1452 106.154 53.8572 105.442L61.6371 97.6625L53.8572 89.8826C53.1452 89.1706 52.7452 88.205 52.7452 87.1981V73.9587C51.3328 73.0635 49.929 72.0019 48.625 70.6979C38.4744 60.5473 38.4744 44.0864 48.625 33.9358C58.7756 23.7853 75.2365 23.7853 85.3871 33.9358C95.5377 44.0864 95.5377 60.5473 85.3871 70.6979C84.0831 72.0019 82.6793 73.0635 81.2668 73.9587L81.2668 115.103ZM73.674 113.531V71.7806C73.674 70.3849 74.4398 69.1017 75.6683 68.4392C77.3328 67.5414 78.7907 66.5564 80.0181 65.3289C87.2035 58.1436 87.2035 46.4902 80.0181 39.3048C72.8327 32.1194 61.1794 32.1194 53.994 39.3048C46.8086 46.4902 46.8086 58.1436 53.994 65.3289C55.2214 66.5564 56.6792 67.5414 58.3438 68.4392C59.5722 69.1017 60.3381 70.3849 60.3381 71.7806V85.6256L69.6905 94.978C71.1731 96.4606 71.1731 98.8644 69.6905 100.347L60.3381 109.699L60.3381 113.531L67.006 120.198L73.674 113.531Z" fill="#34B53A"/>
<path fill-rule="evenodd" clip-rule="evenodd" d="M69.5537 54.8644C70.9608 53.4574 70.9608 51.1761 69.5537 49.769C68.1467 48.362 65.8654 48.362 64.4583 49.769C63.0513 51.1761 63.0513 53.4574 64.4583 54.8644C65.8654 56.2715 68.1467 56.2715 69.5537 54.8644ZM74.9227 44.4001C79.2949 48.7723 79.2949 55.8612 74.9227 60.2334C70.5504 64.6057 63.4616 64.6057 59.0893 60.2334C54.7171 55.8612 54.7171 48.7723 59.0893 44.4001C63.4616 40.0278 70.5504 40.0278 74.9227 44.4001Z" fill="#34B53A"/>
<path fill-rule="evenodd" clip-rule="evenodd" d="M41.3618 33.0271C39.2709 33.3476 37.3215 31.9423 37.0078 29.8882L40.5804 29.3406C37.0078 29.8882 37.0079 29.8892 37.0078 29.8882L37.0065 29.8796L37.0049 29.8692L37.0011 29.8429L36.9908 29.7688C36.9829 29.7102 36.973 29.6331 36.9622 29.5392C36.9406 29.3517 36.9149 29.0954 36.8932 28.784C36.85 28.1661 36.8206 27.3065 36.8762 26.3226C36.9807 24.4713 37.4113 21.6469 39.1379 19.2662C46.8681 8.60782 61.9112 6.14525 72.7262 13.6974C83.5411 21.2495 86.0984 36.0025 78.3683 46.6609C77.1373 48.3582 74.7458 48.761 73.0267 47.5606C71.3077 46.3601 70.912 44.0111 72.143 42.3137C77.3851 35.0859 75.6816 25.0206 68.2683 19.8439C60.8551 14.6671 50.6053 16.3855 45.3632 23.6133C44.8939 24.2605 44.596 25.3702 44.5212 26.696C44.487 27.3006 44.5052 27.8403 44.532 28.2246C44.5453 28.4143 44.5602 28.5598 44.5704 28.6488C44.5755 28.6932 44.5794 28.723 44.5813 28.7368L44.5804 28.7312M41.3618 33.0271C43.4474 32.7074 44.8861 30.7915 44.5822 28.7434Z" fill="#34B53A"/>
</svg>
